<?xml version="1.0" standalone="no"?>
<!DOCTYPE svg PUBLIC "-//W3C//DTD SVG 20010904//EN"
 "http://www.w3.org/TR/2001/REC-SVG-20010904/DTD/svg10.dtd">
<svg version="1.0" xmlns="http://www.w3.org/2000/svg"
 width="640.000000pt" height="640.000000pt" viewBox="0 0 640.000000 640.000000"
 preserveAspectRatio="xMidYMid meet">

<g transform="translate(0.000000,640.000000) scale(0.100000,-0.100000)"
fill="#000000" stroke="none">
<path d="M2920 5619 c-532 -53 -1051 -301 -1441 -689 -295 -293 -489 -611
-613 -1008 -123 -393 -139 -866 -42 -1272 168 -704 638 -1294 1287 -1613 344
-170 679 -247 1070 -247 396 0 715 73 1064 245 357 175 633 401 867 710 286
379 440 783 486 1280 21 217 -9 573 -64 775 -121 440 -338 822 -635 1119 -389
388 -893 633 -1431 695 -142 17 -405 19 -548 5z m902 -898 c4 -3 54 -134 112
-291 58 -157 139 -377 181 -490 42 -113 96 -259 120 -325 40 -111 103 -281
365 -985 120 -322 190 -515 190 -524 0 -3 -82 -6 -183 -6 l-183 0 -21 57 c-12
32 -69 184 -128 338 -59 154 -114 300 -122 325 -9 25 -21 48 -27 52 -15 10
-634 10 -640 0 -4 -7 181 -522 249 -692 8 -19 17 -45 20 -57 l6 -23 -184 0
-184 0 -35 93 c-20 50 -66 174 -104 274 -38 100 -71 180 -73 177 -3 -2 -50
-125 -105 -272 l-101 -267 -189 -3 c-177 -2 -188 -1 -181 15 4 10 30 79 57
153 83 228 188 513 205 552 8 20 12 41 9 47 -11 17 -632 15 -643 -1 -4 -7 -71
-182 -148 -388 l-141 -375 -188 -3 c-177 -2 -188 -1 -181 15 3 10 42 115 85
233 43 118 171 465 284 770 114 305 236 636 273 735 36 99 76 207 89 240 22
59 157 425 206 560 l26 70 127 0 127 0 80 -215 c43 -118 101 -273 128 -345 27
-71 73 -197 104 -280 30 -82 60 -163 66 -180 13 -34 -5 -78 220 530 61 165
127 344 146 397 l36 97 97 3 c98 3 141 0 153 -11z"/>
<path d="M3662 3993 c-30 -87 -88 -253 -195 -553 -31 -85 -59 -167 -62 -182
l-7 -28 301 0 c166 0 301 4 301 9 0 5 -32 96 -71 202 -39 107 -83 230 -99 274
-52 149 -130 358 -134 362 -2 2 -17 -35 -34 -84z"/>
<path d="M2655 4059 c-26 -71 -85 -237 -120 -339 -24 -69 -72 -205 -108 -302
-35 -98 -62 -180 -59 -183 6 -6 602 -7 602 -1 0 5 -89 255 -130 366 -17 47
-40 110 -51 140 -40 117 -116 320 -122 326 -4 4 -9 1 -12 -7z"/>
</g>
</svg>
